<mxfile host="app.diagrams.net" modified="2020-09-25T18:05:11.602Z" agent="5.0 (Macintosh; Intel Mac OS X 10_14_6) AppleWebKit/537.36 (KHTML, like Gecko) Chrome/85.0.4183.121 Safari/537.36" etag="qL0xN4I4T0Sh3kZCen29" version="13.7.1" type="github">
  <diagram id="dcP60B0NoK9WWwO6IKdQ" name="Page-1">
    <mxGraphModel dx="946" dy="1305" grid="1" gridSize="10" guides="1" tooltips="1" connect="1" arrows="1" fold="1" page="1" pageScale="1" pageWidth="1169" pageHeight="827" math="0" shadow="0">
      <root>
        <mxCell id="0" />
        <mxCell id="1" parent="0" />
        <mxCell id="TLtv2jbyTkEXlZUa4dDv-1" value="&lt;font style=&quot;font-size: 22px&quot; color=&quot;#0066cc&quot;&gt;Reproducible, Large Scale Experiments with SkyhookDM Ceph using Popper&lt;/font&gt;" style="text;html=1;strokeColor=none;fillColor=none;align=center;verticalAlign=middle;whiteSpace=wrap;rounded=0;" parent="1" vertex="1">
          <mxGeometry x="210" y="-790" width="670" height="20" as="geometry" />
        </mxCell>
        <mxCell id="TLtv2jbyTkEXlZUa4dDv-2" value="" style="endArrow=none;html=1;" parent="1" edge="1">
          <mxGeometry width="50" height="50" relative="1" as="geometry">
            <mxPoint x="5" y="-720" as="sourcePoint" />
            <mxPoint x="1165" y="-720" as="targetPoint" />
          </mxGeometry>
        </mxCell>
        <mxCell id="jfKvlz78rpgBTAkkKznz-1" value="&lt;font style=&quot;font-size: 18px&quot;&gt;The Problem&lt;/font&gt;" style="text;html=1;strokeColor=none;fillColor=none;align=center;verticalAlign=middle;whiteSpace=wrap;rounded=0;" parent="1" vertex="1">
          <mxGeometry x="110" y="-700" width="130" height="20" as="geometry" />
        </mxCell>
        <mxCell id="jfKvlz78rpgBTAkkKznz-6" value="&lt;div style=&quot;text-align: left ; font-size: 14px&quot;&gt;&lt;font style=&quot;font-size: 14px&quot;&gt;1. Deploying and Performing experiments of Ceph is&amp;nbsp;&lt;/font&gt;&lt;/div&gt;&lt;div style=&quot;text-align: left ; font-size: 14px&quot;&gt;&lt;font style=&quot;font-size: 14px&quot;&gt;time-consuming, cumbersome and error-prone.&lt;/font&gt;&lt;/div&gt;&lt;div style=&quot;text-align: left ; font-size: 14px&quot;&gt;&lt;font style=&quot;font-size: 14px&quot;&gt;&lt;br&gt;&lt;/font&gt;&lt;/div&gt;&lt;font style=&quot;font-size: 14px&quot;&gt;&lt;div style=&quot;text-align: left&quot;&gt;&lt;span&gt;2. The high-level steps are as follows:&amp;nbsp;&lt;/span&gt;&lt;/div&gt;&lt;div style=&quot;text-align: left&quot;&gt;&lt;ul&gt;&lt;li&gt;&lt;span&gt;&lt;div style=&quot;text-align: left&quot;&gt;&lt;span&gt;Boot up Node and deploy Kubernetes&lt;/span&gt;&lt;/div&gt;&lt;/span&gt;&lt;/li&gt;&lt;li&gt;&lt;div style=&quot;text-align: left&quot;&gt;Baseline the Kubernetes cluster&lt;/div&gt;&lt;/li&gt;&lt;li&gt;&lt;div style=&quot;text-align: left&quot;&gt;Compile and Deploy Ceph&lt;/div&gt;&lt;/li&gt;&lt;li&gt;&lt;div style=&quot;text-align: left&quot;&gt;Baseline the Ceph Deployment&lt;/div&gt;&lt;/li&gt;&lt;li&gt;&lt;div style=&quot;text-align: left&quot;&gt;Write notebooks and generate plots&lt;/div&gt;&lt;/li&gt;&lt;/ul&gt;&lt;div&gt;3. If done manually, requires writing ad-hoc scripts and typing out 100s of commands. Time not spent well !&lt;/div&gt;&lt;/div&gt;&lt;/font&gt;" style="text;html=1;strokeColor=none;fillColor=none;align=center;verticalAlign=middle;whiteSpace=wrap;rounded=0;" parent="1" vertex="1">
          <mxGeometry x="20" y="-680" width="350" height="240" as="geometry" />
        </mxCell>
        <mxCell id="jfKvlz78rpgBTAkkKznz-7" style="edgeStyle=orthogonalEdgeStyle;rounded=0;orthogonalLoop=1;jettySize=auto;html=1;exitX=0.5;exitY=1;exitDx=0;exitDy=0;" parent="1" source="jfKvlz78rpgBTAkkKznz-1" target="jfKvlz78rpgBTAkkKznz-1" edge="1">
          <mxGeometry relative="1" as="geometry" />
        </mxCell>
        <mxCell id="jfKvlz78rpgBTAkkKznz-8" style="edgeStyle=orthogonalEdgeStyle;rounded=0;orthogonalLoop=1;jettySize=auto;html=1;exitX=0.5;exitY=1;exitDx=0;exitDy=0;" parent="1" source="jfKvlz78rpgBTAkkKznz-1" target="jfKvlz78rpgBTAkkKznz-1" edge="1">
          <mxGeometry relative="1" as="geometry" />
        </mxCell>
        <mxCell id="7dyDRv-mh5p-rkIBtsI9-1" value="&lt;font style=&quot;font-size: 18px&quot;&gt;SkyhookDM&lt;/font&gt;" style="text;html=1;strokeColor=none;fillColor=none;align=center;verticalAlign=middle;whiteSpace=wrap;rounded=0;" vertex="1" parent="1">
          <mxGeometry x="525" y="-700" width="5" height="20" as="geometry" />
        </mxCell>
        <mxCell id="7dyDRv-mh5p-rkIBtsI9-2" value="&lt;font style=&quot;font-size: 14px&quot;&gt;&lt;span&gt;1. Leverage &quot;programmable storage&quot; capabilities to push down data management, query, and processing to storage.&lt;/span&gt;&lt;br&gt;&lt;br&gt;&lt;span&gt;2. Extends the Ceph distributed object store via Object classes.&lt;/span&gt;&lt;br&gt;&lt;br&gt;&lt;span&gt;3. Stores tabular data in Arrow and Flatbuffer format.&lt;/span&gt;&lt;/font&gt;" style="text;html=1;strokeColor=none;fillColor=none;align=left;verticalAlign=middle;whiteSpace=wrap;rounded=0;" vertex="1" parent="1">
          <mxGeometry x="390" y="-680" width="340" height="160" as="geometry" />
        </mxCell>
      </root>
    </mxGraphModel>
  </diagram>
</mxfile>
